<?xml version="1.0" encoding="utf-8"?>
<!-- Generator: Adobe Illustrator 25.4.1, SVG Export Plug-In . SVG Version: 6.00 Build 0)  -->
<svg version="1.1" id="Layer_1" xmlns="http://www.w3.org/2000/svg" xmlns:xlink="http://www.w3.org/1999/xlink" x="0px" y="0px"
	 viewBox="0 0 1035.3 281.2" style="enable-background:new 0 0 1035.3 281.2;" xml:space="preserve">
<style type="text/css">
	.st0{fill:#404040;}
	.st1{fill-rule:evenodd;clip-rule:evenodd;fill:#FFFFFF;}
	.st2{fill:#FFFFFF;}
	.st3{fill:none;}
</style>
<g>
	<rect x="754" class="st0" width="281.2" height="281.2"/>
</g>
<g id="layer1">
	<g id="g1010">
		<polygon id="polygon839" class="st1" points="991.4,197 1023.8,197 1023.8,92.3 991.6,146.5 		"/>
		<path id="path843" class="st1" d="M870.6,84.2h-40.1l-67,112.8h32.6l13.2-24.1h44l2.4,18.4l25.4-42.6L870.6,84.2z M821.3,151.6
			l24.2-44.1l4.9,44.1H821.3z"/>
		<polygon id="polygon841" class="st1" points="956.6,92.7 924.2,146.7 924.2,189.3 956.6,135.1 		"/>
		<polygon id="polygon845" class="st1" points="923.9,196.6 956.4,196.6 1023.8,84.2 991.2,84.2 		"/>
		<polygon id="polygon847" class="st1" points="857,196.6 889.6,196.6 956.8,84.2 924.3,84.2 		"/>
		<line id="line895" class="st2" x1="804.6" y1="127.9" x2="804.6" y2="127.9"/>
		<line id="line897" class="st2" x1="798.6" y1="124.8" x2="799.7" y2="124.8"/>
		<line id="line899" class="st2" x1="777.8" y1="136.3" x2="778.9" y2="136.3"/>
	</g>
</g>
<g>
	<g>
		<rect x="80.5" y="146.7" class="st3" width="617" height="86"/>
		<path class="st0" d="M285.9,193.1c-13.9,0-19.6-4.6-19.6-14.9c0-3.7,1.1-8.2,2.7-12.2l3.8,1.4c-1.5,3.8-2.2,6.7-2.2,10
			c0,7.2,5.3,10.3,15.3,10.3h12.5c11.2,0,16.1-3.1,16.1-9.5c0-4.6-0.9-9.3-1.8-13.4l4.2-1c0.9,3.6,1.9,8.6,1.9,13.7
			c0,10.2-5.5,15.7-20.3,15.7H285.9z M289.5,201.4c0-1.7,1.4-3.2,3.2-3.2c1.8,0,3.2,1.5,3.2,3.2s-1.4,3.2-3.2,3.2
			C290.9,204.7,289.5,203.2,289.5,201.4z"/>
		<path class="st0" d="M345.4,187.6l1.1,0.2l-0.2,5.1l-1.1,0.2h-6.3c-1.6,8-7.9,14.6-18,14.6c-2.1,0-4.1-0.3-5-0.6l0.5-5.1
			c1.5,0.2,3,0.3,4.5,0.3c10,0,14.1-6.9,14.1-12.2c0-4.9-1.1-10.3-2.4-17.6l4.3-1.1c1.3,6.5,2.2,11.9,2.3,16.3H345.4z"/>
		<path class="st0" d="M344.2,188l1.1-0.3h10.9l1.1,0.3l-0.2,4.8l-1.1,0.3h-11l-1.1-0.3L344.2,188z"/>
		<path class="st0" d="M390.8,187.8l-0.2,5.1l-1.1,0.2c-6.3,0-12.2-1.1-17-3c-3.6,1.7-9.1,3-16.4,3l-1.1-0.2l0.2-5.1l1.1-0.2
			c3.7,0,7.1-0.3,10.2-0.9c-3.8-2.9-6.1-6.6-6.1-11c0-7.3,5.1-14.2,12.9-14.2c7.3,0,12.1,6.4,12.1,13.5c0,4.7-2.5,8.6-6.9,11.5
			c3.2,0.7,6.9,1,11.2,1L390.8,187.8z M372.7,185c5.3-2.1,8.4-5.3,8.4-9.2c0-4.6-3.2-8.7-8.3-8.7c-4.9,0-8.2,3.9-8.2,8.1
			C364.6,179.4,367.5,182.8,372.7,185z M366.1,152.5c0-1.7,1.4-3,3-3c1.7,0,3,1.4,3,3c0,1.6-1.2,3-3,3
			C367.5,155.5,366.1,154.1,366.1,152.5z M374.4,152.5c0-1.7,1.3-3,3-3c1.6,0,3,1.4,3,3c0,1.6-1.4,3-3,3
			C375.7,155.5,374.4,154.1,374.4,152.5z"/>
		<path class="st0" d="M388.5,188l1.1-0.3h10.9l1.1,0.3l-0.2,4.8l-1.1,0.3h-11l-1.1-0.3L388.5,188z"/>
		<path class="st0" d="M435.3,180.6c0,7.8-5.4,12.7-13.7,12.7c-6.1,0-10.1-3.1-11.3-5.9c-1.5,3.6-5.3,5.7-10,5.7l-1.1-0.2l0.2-5.1
			l1.1-0.2c3.4,0,6.9-0.7,8.2-5.4c2.3-9.8,7.5-14.8,14.8-14.8C430.4,167.4,435.3,173.6,435.3,180.6z M431,181.6
			c0-5.1-3.4-8.8-8.1-8.8c-5.5,0-8.9,4.2-10.2,10.6c1.1,2.2,4.1,4.5,9.8,4.5C428,188,431,185.4,431,181.6z"/>
		<path class="st0" d="M493.1,187.8l-0.2,5l-1.1,0.3c-7.7,0-11.4-3.6-12.2-9.3c-1.5,3-4.6,5.2-10.2,5.2c-7.1,0-11.8-4.3-11.8-10.9
			c0-7.7,5.7-13.8,21.8-16.6v-4.8h4.4v23.2c0,6.7,3.4,7.6,8.2,7.6L493.1,187.8z M479.4,179.1v-12.7c-13.2,2.4-17.5,7-17.5,11.2
			c0,4,3.2,5.9,8.1,5.9C475.6,183.5,478.6,181.2,479.4,179.1z"/>
		<path class="st0" d="M490.9,188l1.1-0.3h10.9l1.1,0.3l-0.2,4.8l-1.1,0.3h-11l-1.1-0.3L490.9,188z"/>
		<path class="st0" d="M501.8,188l1.1-0.3h10.9l1.1,0.3l-0.2,4.8l-1.1,0.3h-11l-1.1-0.3L501.8,188z"/>
		<path class="st0" d="M535.6,187.8l-0.2,5.1l-1.1,0.2c-5.3,0-9.6-2-10.6-6.3c-1.2,4-5.1,6.3-10.1,6.3l-1.1-0.2l0.2-5.1l1.1-0.2
			c4.6,0,8.2-0.9,8.2-7.6v-33.3h4.4v33.3c0,6.7,3.4,7.6,8.2,7.6L535.6,187.8z"/>
		<path class="st0" d="M547.1,146.7v33.5c0,9.2-5.5,12.9-12.7,12.9l-1.1-0.2l0.2-5.1l1.1-0.2c4.8,0,8.2-0.9,8.2-6.6v-34.3H547.1z"/>
		<path class="st0" d="M557.6,193.1v-46.4h4.4v46.4H557.6z"/>
		<path class="st0" d="M609.8,187.8l-0.2,5.1l-1.1,0.2c-6.4,0-9.2-2.8-11.5-7.6c-1.8,5.3-6.5,8.2-13.7,8.2
			c-12.5,0-14.1-7.1-13.6-14.3l4-0.2c-0.4,7.7,3.9,9,10,9c6.3,0,10.6-2.6,10.8-7.2l-9.6-20.2l4.4-2l10.2,21.4c2.5,5.2,4,7.4,9.2,7.4
			L609.8,187.8z"/>
		<path class="st0" d="M607.6,188l1.1-0.3h10.9l1.1,0.3l-0.2,4.8l-1.1,0.3h-11l-1.1-0.3L607.6,188z"/>
		<path class="st0" d="M618.5,188l1.1-0.3h10.9l1.1,0.3l-0.2,4.8l-1.1,0.3h-11l-1.1-0.3L618.5,188z"/>
		<path class="st0" d="M629.4,188l1.1-0.3h10.9l1.1,0.3l-0.2,4.8l-1.1,0.3h-11l-1.1-0.3L629.4,188z"/>
		<path class="st0" d="M663.2,187.8l-0.2,5.1l-1.1,0.2c-5.3,0-9.5-2-10.6-6.4c-1.1,4-5.1,6.4-10.1,6.4l-1.1-0.2l0.2-5.1l1.1-0.2
			c4.6,0,8.2-0.9,8.2-7.6v-9.4h4.4v9.4c0,6.7,2.9,7.6,8.2,7.6L663.2,187.8z M654.9,201.4c0,1.7-1.4,3.2-3.2,3.2
			c-1.8,0-3.2-1.5-3.2-3.2s1.4-3.2,3.2-3.2C653.5,198.2,654.9,199.7,654.9,201.4z"/>
		<path class="st0" d="M695.1,187.6v5.5h-33.2l-1.1-0.5l0.1-4.4l1.2-0.7h8.7c-2.7-2-4.4-5.2-4.4-9.5c0-7.3,5.3-14.7,14.2-14.7
			c6.3,0,10.2,4.4,11.7,6.9l-2.9,3.4c-2-2-5.1-4.8-9.6-4.8c-5.4,0-9.2,4.1-9.2,9c0,6.5,5.8,9.7,11.2,9.7H695.1z"/>
	</g>
	<g>
		<rect x="7" y="78.9" class="st3" width="697" height="78"/>
		<path class="st0" d="M190.2,125.3l-5-13.9h-18.5l-4.9,13.9H156l17.5-46.4h5.1l17.3,46.4H190.2z M168.3,106.7h15.2l-7.7-21.2
			L168.3,106.7z"/>
		<path class="st0" d="M236.9,108.2c0,11.4-7.4,17.8-16.7,17.8c-5.9,0-10.3-2.7-13.3-7.9v7.3H202V78.9h4.9v19.5
			c3.1-5.1,7.7-8.2,13.3-8.2C229.4,90.1,236.9,96.1,236.9,108.2z M231.7,108.1c0-9.3-4.9-13.5-11.6-13.5s-12,6-13.1,13.4
			c1.3,7.6,5.9,13.3,13.1,13.3C226.8,121.4,231.7,116.6,231.7,108.1z"/>
		<path class="st0" d="M273,78.9h4.9v46.4H273V118c-3,5.3-7.3,8-13.3,8c-9.3,0-16.7-6.3-16.7-17.8c0-11.5,7.4-18.1,16.7-18.1
			c5.9,0,10.3,2.8,13.3,7.7V78.9z M273,108.1c-1.1-7.4-6.5-13.4-13.2-13.4c-6.6,0-11.5,4.2-11.5,13.5c0,8.4,4.9,13.3,11.5,13.3
			C267,121.4,271.6,115.7,273,108.1z"/>
		<path class="st0" d="M313.2,90.8h4.9v34.4h-4.9v-7.8c-3.3,5.8-7.7,8.4-13.5,8.4c-5.7,0-11.3-2.9-11.3-13.7V90.8h4.9v20.8
			c0,6.8,3.2,9.7,7.4,9.7c5.7,0,9.5-3.8,12.4-11.7V90.8z"/>
		<path class="st0" d="M329.1,125.3V78.9h4.9v46.4H329.1z"/>
		<path class="st0" d="M345,125.3V78.9h4.9v46.4H345z"/>
		<path class="st0" d="M388.4,90.8h4.9v34.4h-4.9V118c-3,5.2-7.3,7.9-13.2,7.9c-9.4,0-16.8-6.3-16.8-17.8c0-11.5,7.4-18.1,16.8-18.1
			c5.8,0,10.3,2.8,13.2,7.6V90.8z M388.4,108.1c-1.1-7.4-6.5-13.4-13.1-13.4c-6.7,0-11.6,4.2-11.6,13.5c0,8.4,4.9,13.3,11.6,13.3
			C382.5,121.4,387,115.7,388.4,108.1z"/>
		<path class="st0" d="M434.5,103.8v21.4h-4.9v-20.8c0-6.9-3.2-9.8-7.5-9.8c-5.5,0-9.4,4.2-12.7,12v18.5h-4.9V78.9h4.9V99
			c3.6-6.1,8.1-8.8,13.7-8.8C428.8,90.1,434.5,93.1,434.5,103.8z"/>
		<path class="st0" d="M501.4,78.9h5.1v46.4h-5.1V88.8L487,116.1h-5l-14.3-26.4v35.6h-5.1V78.9h5.1V79l17.2,31.7L501.4,78.9z"/>
		<path class="st0" d="M533.1,90.1c8.3,0,18.1,5.5,18.1,17.7c0,12-9.2,18.1-18.3,18.1c-8.7,0-17.6-5.6-17.6-17.8
			C515.3,96.1,524.6,90.1,533.1,90.1z M533.2,121.4c6.9,0,12.8-4.3,12.8-13.1c0-9.1-6.3-13.6-12.8-13.6c-6,0-12.7,4-12.7,13.2
			C520.5,117.2,526.5,121.4,533.2,121.4z"/>
		<path class="st0" d="M587.2,90.8h4.9v48.4h-4.9V118c-3,5.3-7.3,8-13.3,8c-9.3,0-16.7-6.3-16.7-17.8c0-11.5,7.4-18.1,16.7-18.1
			c5.9,0,10.3,2.8,13.3,7.7V90.8z M587.2,108.1c-1.1-7.4-6.5-13.4-13.2-13.4c-6.6,0-11.5,4.2-11.5,13.5c0,8.4,5,13.3,11.5,13.3
			C581.2,121.4,585.8,115.7,587.2,108.1z"/>
		<path class="st0" d="M623.3,90.8l-1.1,4.4c-0.9-0.3-1.8-0.5-2.7-0.5c-5,0-9.1,4.9-11.5,11.6v19h-4.9V90.8h4.9v8.1
			c2.7-4.8,6.6-8.7,11.8-8.7C621,90.2,622.2,90.4,623.3,90.8z"/>
		<path class="st0" d="M657.8,108.1c0,0.6-0.1,1.4-0.1,1.8h-27.3c0.5,7.7,4.9,11.5,12.7,11.5c4,0,7.5-0.5,11.8-3l1.1,4
			c-3,2.1-8.3,3.6-13.2,3.6c-10.9,0-17.8-6.3-17.8-17.5c0-11.8,7.7-18.3,16.8-18.3C650.7,90.1,657.8,96.1,657.8,108.1z M630.5,105.7
			h22c-0.7-7.5-4.9-11-10.8-11C635.8,94.7,631.3,98.3,630.5,105.7z"/>
		<path class="st0" d="M701,108.2c0,11.4-7.4,17.8-16.7,17.8c-5.9,0-10.3-2.7-13.3-7.9v7.3H666V78.9h4.9v19.5
			c3.1-5.1,7.7-8.2,13.3-8.2C693.4,90.1,701,96.1,701,108.2z M695.7,108.1c0-9.3-4.9-13.5-11.6-13.5c-6.7,0-12,6-13.1,13.4
			c1.3,7.6,5.9,13.3,13.1,13.3C690.8,121.4,695.7,116.6,695.7,108.1z"/>
	</g>
</g>
</svg>
