<?xml version="1.0" encoding="UTF-8" standalone="no"?>
<svg
   xmlns:dc="http://purl.org/dc/elements/1.1/"
   xmlns:cc="http://creativecommons.org/ns#"
   xmlns:rdf="http://www.w3.org/1999/02/22-rdf-syntax-ns#"
   xmlns:svg="http://www.w3.org/2000/svg"
   xmlns="http://www.w3.org/2000/svg"
   xmlns:xlink="http://www.w3.org/1999/xlink"
   xmlns:sodipodi="http://sodipodi.sourceforge.net/DTD/sodipodi-0.dtd"
   xmlns:inkscape="http://www.inkscape.org/namespaces/inkscape"
   viewBox="0 0 960.00004 640.00079"
   id="svg2"
   version="1.1"
   inkscape:version="0.91 r13725"
   sodipodi:docname="BevelledSaudiArabia.svg"
   width="960.00006"
   height="640.00079">
  <metadata
     id="metadata4551">
    <rdf:RDF>
      <cc:Work
         rdf:about="">
        <dc:format>image/svg+xml</dc:format>
        <dc:type
           rdf:resource="http://purl.org/dc/dcmitype/StillImage" />
        <dc:title></dc:title>
      </cc:Work>
    </rdf:RDF>
  </metadata>
  <sodipodi:namedview
     pagecolor="#ffffff"
     bordercolor="#666666"
     borderopacity="1"
     objecttolerance="10"
     gridtolerance="10"
     guidetolerance="10"
     inkscape:pageopacity="0"
     inkscape:pageshadow="2"
     inkscape:window-width="1600"
     inkscape:window-height="837"
     id="namedview4549"
     showgrid="true"
     fit-margin-top="0"
     fit-margin-left="0"
     fit-margin-right="0"
     fit-margin-bottom="0"
     inkscape:object-nodes="true"
     inkscape:snap-smooth-nodes="true"
     inkscape:object-paths="false"
     inkscape:snap-global="true"
     inkscape:zoom="1.0468737"
     inkscape:cx="480.00003"
     inkscape:cy="320.0004"
     inkscape:window-x="-8"
     inkscape:window-y="-8"
     inkscape:window-maximized="1"
     inkscape:current-layer="svg2" />
  <defs
     id="defs4">
    <linearGradient
       id="linearGradient6136">
      <stop
         style="stop-color:#000000;stop-opacity:0;"
         offset="0"
         id="stop6138" />
      <stop
         style="stop-color:#000000;stop-opacity:1;"
         offset="1"
         id="stop6140" />
    </linearGradient>
    <linearGradient
       id="linearGradient22506">
      <stop
         style="stop-color:#ffffff;stop-opacity:1;"
         offset="0"
         id="stop22508" />
      <stop
         style="stop-color:#ffffff;stop-opacity:0;"
         offset="1"
         id="stop22510" />
    </linearGradient>
    <linearGradient
       id="linearGradient22338">
      <stop
         style="stop-color:#000000;stop-opacity:0;"
         offset="0"
         id="stop22340" />
      <stop
         id="stop6129"
         offset="0.5"
         style="stop-color:#000000;stop-opacity:0;" />
      <stop
         style="stop-color:#000000;stop-opacity:1;"
         offset="1"
         id="stop22342" />
    </linearGradient>
    <filter
       style="color-interpolation-filters:sRGB"
       inkscape:label="Blur"
       id="filter23929">
      <feGaussianBlur
         stdDeviation="1 5"
         result="blur"
         id="feGaussianBlur23931" />
    </filter>
    <filter
       style="color-interpolation-filters:sRGB"
       inkscape:label="Blur"
       id="filter23980">
      <feGaussianBlur
         stdDeviation="2 2"
         result="blur"
         id="feGaussianBlur23982" />
    </filter>
    <filter
       style="color-interpolation-filters:sRGB"
       inkscape:label="Blur"
       id="filter23988">
      <feGaussianBlur
         stdDeviation="1 1"
         result="blur"
         id="feGaussianBlur23990" />
    </filter>
    <filter
       style="color-interpolation-filters:sRGB"
       inkscape:label="Blur"
       id="filter24008">
      <feGaussianBlur
         stdDeviation="1 1"
         result="blur"
         id="feGaussianBlur24010" />
    </filter>
    <filter
       style="color-interpolation-filters:sRGB"
       inkscape:label="Blur"
       id="filter24012">
      <feGaussianBlur
         stdDeviation="1 1"
         result="blur"
         id="feGaussianBlur24014" />
    </filter>
    <filter
       style="color-interpolation-filters:sRGB"
       inkscape:label="Blur"
       id="filter24016">
      <feGaussianBlur
         stdDeviation="1 1"
         result="blur"
         id="feGaussianBlur24018" />
    </filter>
    <filter
       style="color-interpolation-filters:sRGB"
       inkscape:label="Blur"
       id="filter24020">
      <feGaussianBlur
         stdDeviation="1 1"
         result="blur"
         id="feGaussianBlur24022" />
    </filter>
    <filter
       style="color-interpolation-filters:sRGB"
       inkscape:label="Blur"
       id="filter24024">
      <feGaussianBlur
         stdDeviation="1 1"
         result="blur"
         id="feGaussianBlur24026" />
    </filter>
    <filter
       style="color-interpolation-filters:sRGB"
       inkscape:label="Blur"
       id="filter24028">
      <feGaussianBlur
         stdDeviation="1 1"
         result="blur"
         id="feGaussianBlur24030" />
    </filter>
    <filter
       style="color-interpolation-filters:sRGB"
       inkscape:label="Blur"
       id="filter24032">
      <feGaussianBlur
         stdDeviation="1 1"
         result="blur"
         id="feGaussianBlur24034" />
    </filter>
    <filter
       style="color-interpolation-filters:sRGB"
       inkscape:label="Blur"
       id="filter24036">
      <feGaussianBlur
         stdDeviation="1 1"
         result="blur"
         id="feGaussianBlur24038" />
    </filter>
    <filter
       style="color-interpolation-filters:sRGB"
       inkscape:label="Blur"
       id="filter24052">
      <feGaussianBlur
         stdDeviation="1 1"
         result="blur"
         id="feGaussianBlur24054" />
    </filter>
    <filter
       style="color-interpolation-filters:sRGB"
       inkscape:label="Blur"
       id="filter24309">
      <feGaussianBlur
         stdDeviation="2 2"
         result="blur"
         id="feGaussianBlur24311" />
    </filter>
    <clipPath
       clipPathUnits="userSpaceOnUse"
       id="clipPath4532">
      <path
         inkscape:connector-curvature="0"
         id="path4534"
         d="M 18.75,-2.6189942e-4 A 18.75,18.75 0 0 0 0,18.749739 L 0,381.25023 a 18.75,18.75 0 0 0 18.75,18.75 l 562.50001,0 a 18.75,18.75 0 0 0 18.75001,-18.75 l 0,-362.500491 A 18.75,18.75 0 0 0 581.25001,-2.6189942e-4 l -562.50001,0 z"
         style="fill:#00ffff;fill-opacity:1" />
    </clipPath>
    <radialGradient
       inkscape:collect="always"
       xlink:href="#linearGradient22338"
       id="radialGradient6127"
       cx="1070"
       cy="700.00079"
       fx="1070"
       fy="700.00079"
       r="40"
       gradientUnits="userSpaceOnUse"
       gradientTransform="matrix(-1,0,0,1,1830,-99.999203)" />
    <linearGradient
       inkscape:collect="always"
       xlink:href="#linearGradient6136"
       id="linearGradient6142"
       x1="780"
       y1="373.3338"
       x2="800"
       y2="373.3338"
       gradientUnits="userSpaceOnUse" />
    <linearGradient
       inkscape:collect="always"
       xlink:href="#linearGradient6136"
       id="linearGradient6152"
       x1="410"
       y1="620.00079"
       x2="410"
       y2="640.00079"
       gradientUnits="userSpaceOnUse" />
    <radialGradient
       inkscape:collect="always"
       xlink:href="#linearGradient22338"
       id="radialGradient6156"
       gradientUnits="userSpaceOnUse"
       gradientTransform="translate(-1030,-99.9992)"
       cx="1070"
       cy="700.00079"
       fx="1070"
       fy="700.00079"
       r="40" />
    <linearGradient
       inkscape:collect="always"
       xlink:href="#linearGradient6136"
       id="linearGradient6160"
       gradientUnits="userSpaceOnUse"
       x1="780"
       y1="373.3338"
       x2="800"
       y2="373.3338"
       gradientTransform="translate(-800,0)" />
    <linearGradient
       inkscape:collect="always"
       xlink:href="#linearGradient6136"
       id="linearGradient6164"
       gradientUnits="userSpaceOnUse"
       x1="410"
       y1="620.00079"
       x2="410"
       y2="640.00079"
       gradientTransform="translate(0,-746.66757)" />
    <radialGradient
       inkscape:collect="always"
       xlink:href="#linearGradient22338"
       id="radialGradient6174"
       gradientUnits="userSpaceOnUse"
       gradientTransform="matrix(-1,0,0,-1,1830,846.66678)"
       cx="1070"
       cy="700.00079"
       fx="1070"
       fy="700.00079"
       r="40" />
    <radialGradient
       inkscape:collect="always"
       xlink:href="#linearGradient22338"
       id="radialGradient6176"
       gradientUnits="userSpaceOnUse"
       gradientTransform="matrix(1,0,0,-1,-1030,846.66678)"
       cx="1070"
       cy="700.00079"
       fx="1070"
       fy="700.00079"
       r="40" />
    <linearGradient
       inkscape:collect="always"
       xlink:href="#linearGradient22506"
       id="linearGradient6209"
       x1="2050"
       y1="-120.00079"
       x2="2560"
       y2="-630.00079"
       gradientUnits="userSpaceOnUse"
       gradientTransform="matrix(1,0,0,1.0068041,-1000,4.218536)" />
    <filter
       style="color-interpolation-filters:sRGB"
       inkscape:label="Blur"
       id="filter6223">
      <feGaussianBlur
         stdDeviation="2 2"
         result="blur"
         id="feGaussianBlur6225" />
    </filter>
    <clipPath
       clipPathUnits="userSpaceOnUse"
       id="clipPath12169">
      <rect
         style="fill:#d70000;fill-opacity:1"
         id="rect12171"
         width="800"
         height="533.33398"
         x="0"
         y="-500"
         transform="scale(1,-1)"
         ry="40" />
    </clipPath>
  </defs>
  <g
     id="g12173"
     transform="translate(80,-54.288626)">
    <rect
       style="fill:#000000;fill-opacity:1;filter:url(#filter6223)"
       id="rect6199"
       width="800"
       height="533.33398"
       x="-1000"
       y="-640.00079"
       transform="matrix(1,0,0,-1,1000,0.95522506)"
       ry="40" />
    <g
       clip-path="url(#clipPath12169)"
       id="g4150"
       transform="translate(0,140.0008)">
      <rect
         width="800"
         height="533.33331"
         id="rect4"
         x="0"
         y="-33.333332"
         style="fill:#006c35" />
      <path
         d="m 344.832,92.629333 c -0.41365,-0.01227 -1.0325,0.218614 -1.89995,0.733334 -1.95029,1.307306 -5.81504,5.333973 -5.93333,9.966723 -0.11826,2.61365 -0.61161,2.60341 1.09995,4.26666 1.23637,1.78262 2.47125,1.60736 4.96661,0.3 1.43317,-1.05577 1.91723,-1.72928 2.4,-3.49994 0.59454,-2.9695 -3.1248,1.40501 -3.6,-1.89995 -0.83109,-3.068373 1.54325,-4.330453 3.8,-7.300053 0.0517,-1.398507 0.0767,-2.539734 -0.83333,-2.566614 z m 36.3328,0.2 c -0.69701,0.09387 -1.54965,0.986827 -2.73333,3.133334 -0.84828,2.248106 -4.5072,5.650343 -1.86667,12.666663 2.15989,4.44886 3.04715,11.67894 2.06667,19.73334 -1.49654,2.28896 -1.83787,3.07776 -3.8,5.36661 -2.75659,2.96416 -5.74219,2.20629 -8.03328,1.09995 -2.14059,-1.44278 -3.82272,-2.18336 -4.8,-6.76672 0.17633,-7.3055 0.60198,-19.26294 -0.73334,-21.80054 -1.96853,-3.9296 -5.21312,-2.52032 -6.6,-1.33333 -6.66368,6.0928 -9.95509,16.3808 -11.96693,24.5664 -1.84811,5.96587 -3.81739,4.24053 -5.2,1.83339 -3.36619,-3.15446 -3.60267,-27.82187 -7.66667,-23.7664 -6.5089,18.60266 3.73526,38.98133 10.83307,37.00053 5.12085,2.12011 8.37013,-7.6272 10.46667,-18.29973 1.43424,-2.99531 2.53024,-3.33963 3.26666,-1.8 -0.18923,14.19306 1.01767,17.35893 4.66667,21.66613 8.13984,6.27989 14.87253,0.79563 15.40053,0.26667 0.52791,-0.5279 6.33334,-6.33334 6.33334,-6.33334 1.41056,-1.48373 3.27445,-1.57397 5.26666,-0.26666 1.93632,1.76 1.68768,4.79168 5.83339,6.90005 3.48885,1.39552 10.93867,0.3394 12.66667,-2.66667 2.32554,-3.98549 2.88938,-5.35498 3.96672,-6.86666 1.65994,-2.20939 4.50005,-1.23115 4.50005,-0.53334 -0.26449,1.23211 -1.93323,2.44758 -0.8,4.66667 1.97397,1.48043 2.43243,0.52899 3.6,0.2 4.1296,-1.97397 7.23328,-10.93333 7.23328,-10.93333 0.18276,-3.34155 -1.7184,-3.08811 -2.93333,-2.4 -1.58475,0.96869 -1.68192,1.29792 -3.26667,2.26666 -2.01909,0.29997 -5.93035,1.6319 -7.86667,-1.36661 -1.97717,-3.60491 -1.98837,-8.63061 -3.49994,-12.26667 0,-0.26448 -2.6416,-5.71722 -0.2,-6.06666 1.2321,0.229 3.88181,0.91369 4.29994,-1.30006 1.29238,-2.15776 -2.78848,-8.27893 -5.56672,-11.366397 -2.41152,-2.646933 -5.74122,-2.9696 -8.96661,-0.266666 -2.25888,2.078186 -1.92373,4.399143 -2.36672,6.600003 -0.5752,2.52768 -0.46526,5.65845 2.10005,9 2.25451,4.44565 6.3504,10.14944 5,18.19946 0,0 -2.38005,3.83115 -6.56661,3.33334 -1.74496,-0.3806 -4.58837,-1.13579 -6.10005,-12.29974 -1.1439,-8.45056 0.28663,-20.29013 -3.30006,-25.833597 -0.80971,-2.09184 -1.50496,-4.123093 -2.66666,-3.96672 z m -11.49867,0.896 c -1.0849,0.09472 -2.28672,1.3584 -3.26666,3.8 -0.84076,1.856747 -1.86774,11.566937 -1.70006,11.566937 -0.67089,2.88992 3.01952,4.11456 4.69995,0.4 2.51904,-6.80992 2.5312,-9.71115 2.69995,-12.59947 -0.39243,-2.200213 -1.34838,-3.26144 -2.43328,-3.16672 z M 412.13227,94.492 c -1.11435,0.101013 -2.00192,0.75344 -2.33334,2.4 -0.44404,3.87157 -0.21712,5.97675 0.43334,9.2 0.49887,2.14923 3.62709,5.74763 5.16672,7.83339 7.35573,9.88736 14.43306,19.82186 21.2672,30.10026 1.07434,7.632 1.86154,15.0976 2.36672,22.53334 1.10741,16.30293 1.44394,36.59733 0.43333,53.7664 3.05451,0.12042 7.94859,-4.93216 9.66667,-12.3328 1.11701,-10.23744 -0.39786,-31.12534 -0.5,-37.16694 -0.072,-2.50816 -0.22639,-5.5008 -0.4,-8.63338 7.94954,12.99093 15.66186,26.75413 23.23306,41.86666 2.7599,-1.31168 2.14816,-16.8512 0.53334,-19.0336 -6.05942,-13.04213 -14.43094,-25.91573 -17.09974,-30.8672 -0.96331,-1.78805 -4.24458,-6.77834 -8.13333,-12.53333 -0.71597,-8.21173 -1.49397,-15.16693 -2,-17.2672 -1.25035,-8.68064 3.56768,0.97893 2.90005,-4.06667 -1.5633,-8.6688 -6.34805,-14.56 -12,-22.500263 -1.8224,-2.582507 -1.78634,-3.109227 -4.6,0.633333 -1.6817,3.81525 -1.65898,6.98944 -1.16672,9.96672 -0.74006,-1.07552 -1.65482,-2.35083 -2.96661,-3.93333 -4.88107,-4.18763 -5.18219,-4.41654 -9.23328,-7.83339 -1.27744,-0.906475 -3.70944,-2.30176 -5.56672,-2.133333 z m 125.86666,1.300053 c -0.54267,-0.08437 -1.13397,0.18239 -1.8,1.16672 -1.27296,1.115947 -2.64192,3.136857 -2.6,5.733337 0.30962,4.57472 1.12374,9.25866 1.43339,13.8336 0.10911,0.61218 0.22421,1.22112 0.33333,1.83338 -0.49153,-0.62723 -0.92068,-1.11669 -1.16672,-1.36661 -8.91712,-9.36768 4.09707,-1.53099 -1.70005,-8.76672 -4.90261,-5.38315 -6.33707,-7.09611 -10.53333,-10.333333 -2.10411,-1.36 -3.37536,-3.958614 -4.06667,0.466666 -0.27522,3.887677 -0.56126,8.389657 -0.3,11.667197 -0.015,1.82123 1.87115,5.24971 3.49995,7.26667 5.94858,7.30848 12.02453,15.0848 18.13333,23.2 1.28555,16.5504 1.62837,31.7216 2.93333,48.29973 -0.1849,7.09046 -2.36586,16.50774 -4.43328,17.39947 0,0 -3.15722,1.81376 -5.26666,-0.2 -1.53419,-0.61605 -7.66667,-10.23339 -7.66667,-10.23339 -3.13941,-2.87808 -5.23253,-2.05568 -7.46667,0 -6.16053,5.9487 -8.94677,17.0912 -13.1328,24.76694 -1.07946,1.71264 -4.11978,3.17056 -7.49994,-0.13334 -8.58496,-11.72906 -3.5647,-28.42453 -4.63339,-24.13333 -7.6464,8.61717 -4.26005,22.896 -2.53333,25.96693 2.52117,5.04342 4.56085,8.27232 9.46666,10.76694 4.46827,3.28885 7.94752,1.23626 9.86667,-1.06667 4.49621,-4.65963 4.55616,-16.576 6.66667,-18.93333 1.48042,-4.33067 5.19061,-3.58582 7,-1.66667 1.7536,2.52117 3.824,4.16149 6.4,5.53333 4.19402,3.69952 9.19957,4.37163 14.13333,1 3.37163,-1.8912 5.55936,-4.34901 7.53333,-9.2 2.11798,-5.66464 1.07072,-35.35146 0.6,-51.86666 3.16758,4.46197 6.29398,9.02058 9.4,13.63306 1.36342,14.49707 1.98208,28.7744 1.53334,42.46614 -0.32149,2.72224 9.49994,-8.12758 9.43338,-13.2672 -0.0443,-4.49686 0.009,-8.57238 0,-12.36694 4.76374,7.60598 9.37494,15.33867 13.73334,23.16694 2.7008,-1.43104 1.77504,-16.7232 0.0667,-18.83307 -4.5633,-7.65717 -10.40714,-15.93173 -14.93333,-22.33387 -0.89455,-8.07989 -2.11253,-17.6128 -2.66667,-20.53333 -0.86336,-4.55424 -1.7281,-11.3952 -3.03338,-16.8 -0.35805,-2.11051 -1.43872,-8.85173 -1.09995,-9.49995 0.53219,-1.50837 2.54315,0.0482 3.53333,-1.70005 1.48256,-1.61589 -5.13909,-18.7712 -8.50005,-23.6672 -1.20843,-2.194347 -3.39392,-1.434987 -6.10005,2.133333 -2.50944,2.348057 -1.59126,7.704957 -0.63334,12.799997 2.48822,12.9856 4.70923,26.21014 6.46667,39.40054 -3.25344,-4.83659 -7.224,-10.68907 -11.13387,-16.3328 -0.10506,-0.54428 -0.5,-2.53899 -0.5,-2.56662 -2e-5,-0.23331 -0.53876,-10.62293 -1,-13.09973 -0.0806,-1.00526 -0.3203,-1.29461 0.73334,-1.16672 1.11712,0.93967 1.2689,0.99036 1.96672,1.30005 1.12778,0.20642 2.11392,-1.70026 1.43338,-3.46666 -3.48885,-6.43467 -6.97792,-12.89814 -10.46666,-19.333337 -0.41984,-0.413397 -0.89066,-0.848938 -1.43339,-0.933333 z m -324.832,0.333334 c -1.93312,-0.05525 -4.06592,1.14304 -3.23328,3.466666 -0.48488,1.266457 3.784,5.547627 4.53334,7.899947 0.67195,1.67509 -0.66649,7.06891 0.73333,7.56672 1.28693,0.55799 3.0592,-3.73387 3.73333,-7.70005 0.37307,-2.1728 0.0908,-9.60875 -4.96661,-11.13387 -0.2591,-0.05856 -0.52384,-0.09205 -0.8,-0.09995 z m 370.03734,0.04267 c -0.44066,0.04373 -0.97733,0.755862 -1.8,2.500054 -1.97824,3.240419 -2.65899,9.042559 -1.86667,14.166399 4.76288,32.21653 8.30229,63.41226 9.03339,91.96693 -0.40962,2.7104 -0.5292,4.15211 -1.8,7.56672 -2.81152,3.60384 -5.91222,8.12181 -8.83328,10.29995 -2.92011,2.17717 -9.13472,4.2529 -11.16694,5.86666 -6.4465,3.7264 -6.47893,8.01184 -1.26666,8.16662 8.98272,-1.04287 19.61173,-1.77984 26.93333,-12.83307 1.95893,-3.09739 4.2656,-11.4944 4.36672,-16.6336 0.68484,-30.13013 -0.38553,-59.5904 -4.90005,-81.3664 -0.28921,-2.12128 -1.22582,-6.99691 -0.86667,-7.63328 0.58164,-1.4912 3.52053,0.14925 4.56661,-1.56672 1.53536,-1.56757 -7.60042,-13.26507 -10.8,-18.266663 -0.63923,-1.256106 -1.03344,-2.2896 -1.6,-2.233386 z m -94.19947,0.5 c -0.37092,0.064 -0.91855,0.628534 -1.93333,1.96672 -2.50934,8.204373 -3.39126,14.904533 -2.43328,19.999993 6.44544,33.63627 13.0496,64.28054 12,96.29974 3.05664,0.0204 6.5905,-6.99232 8.10005,-13.9328 0.82677,-9.56118 -0.55164,-15.38027 -0.8,-21.00054 -0.24726,-5.61973 -6.36149,-51.21493 -7.6,-55.46666 -1.4944,-8.0399 5.94507,-1.05758 5.13333,-5.73334 -2.57173,-5.89493 -8.99061,-14.47893 -10.99946,-19.599993 -0.75529,-1.37152 -0.84846,-2.64 -1.46667,-2.533333 z m -229.36533,0.633334 c -0.79211,0.137216 -1.55648,0.78993 -1.83339,1.866666 -0.17418,0.705291 0.3053,1.878503 -0.33333,2.233383 -0.36662,0.36985 -1.75808,0.12126 -1.70006,-1.833383 0,-0.622496 -0.45702,-1.272106 -0.73333,-1.666666 -0.27739,-0.181696 -0.46458,-0.233334 -0.96667,-0.233334 -0.61175,0.02475 -0.59788,0.18608 -0.93333,0.7 -0.14933,0.522667 -0.34133,1.034667 -0.34133,1.631993 -0.0764,0.69562 -0.35492,0.9312 -0.86667,1.03334 -0.57198,0 -0.43661,0.0623 -0.9,-0.23334 -0.27523,-0.30103 -0.6,-0.41941 -0.6,-0.933326 0,-0.532181 -0.13981,-1.38176 -0.3,-1.733333 -0.24297,-0.320384 -0.62693,-0.487115 -1.06667,-0.6 -2.39648,0.0085 -2.57098,2.762449 -2.43328,3.799999 -0.17954,0.19567 -0.2684,5.07648 3,6.43328 4.38763,2.09216 12.61547,1.20768 12.26667,-5.86667 1e-5,-0.62573 -0.13764,-2.726929 -0.2,-3.300049 -0.4478,-1.04288 -1.27456,-1.437227 -2.06667,-1.300054 z m 58.8672,0.06667 c -1.51638,0.07733 -2.85504,0.511904 -4,1.099947 -2.90827,2.784642 -3.59008,7.248752 -1.30006,10.033282 2.2288,1.05255 4.45248,3.29589 2.96662,4.53333 -6.30262,6.73184 -22.70614,17.9808 -23.5328,20.03307 -0.006,0.0168 -0.0298,0.0513 -0.0333,0.0667 -0.002,0.0147 1.6e-4,0.0533 0,0.0667 5e-4,0.006 -10e-4,0.0273 0,0.0333 0.005,0.017 0.0228,0.0529 0.0333,0.0667 0.004,0.004 0.0286,0.0294 0.0333,0.0333 0.005,0.003 0.0274,-0.003 0.0333,0 0.006,0.003 0.0261,0.0309 0.0333,0.0333 0.007,0.002 0.0249,-0.002 0.0333,0 0.002,0.002 0.0305,0.0309 0.0333,0.0333 0.83356,0.5591 11.0976,0.54588 12.2336,0.0333 0.009,-0.004 0.0265,-0.0289 0.0333,-0.0333 0.003,-0.002 0.0305,0.002 0.0333,0 0.002,-0.002 -0.002,-0.031 0,-0.0333 3.52746,-1.29984 20.26666,-20.43307 20.26666,-20.43307 -0.86764,-0.7429 -1.66677,-1.29045 -2.53333,-2.03328 -0.92892,-0.80419 -0.83538,-1.59477 0,-2.4 4.14571,-2.41258 2.832,-7.72074 0.66667,-10.133332 -1.79499,-0.804747 -3.48363,-1.077333 -5,-1 z m 153.86666,0.06667 c -0.44066,0.04373 -0.97732,0.722528 -1.8,2.466667 -1.97824,3.240422 -3.32256,8.883412 -3.16672,14.166402 4.28544,29.66826 5.59926,55.63093 8.4,85.30026 0.22794,2.86955 -0.19271,7.03787 -2.10005,8.69995 -7.05504,7.36683 -17.22773,16.45227 -28.29973,20.6336 -1.19126,1.33749 2.96192,7.03872 8.33333,7.03339 8.98272,-1.04288 16.87787,-6.08448 24.20053,-19.3664 1.95787,-3.0975 5.39894,-9.72758 5.49995,-14.8672 0.68485,-30.13014 -1.51883,-53.55627 -6.03328,-75.33334 -0.28922,-2.12117 -0.0925,-4.63018 0.26667,-5.26666 0.58164,-0.69453 2.55392,0.0159 3.6,-1.70006 1.53525,-1.56757 -4.10038,-14.56533 -7.30006,-19.566929 -0.63923,-1.256107 -1.03344,-2.256213 -1.6,-2.2 z m -238.368,0.906667 c -1.23978,0.14496 -2.40608,1.154346 -2.96661,2.500052 -0.20751,4.75851 -0.23541,9.51456 0.3,13.89973 2.16427,7.69152 2.8496,14.45654 3.89995,22.33387 0.29135,10.55029 -6.09248,4.56384 -5.8,-0.66667 1.47402,-6.79381 1.07616,-17.48906 -0.23334,-20.20053 -1.03858,-2.7104 -2.24117,-3.37952 -4.76672,-2.93333 -2.00512,-0.12256 -7.18517,5.5216 -8.63338,14.8672 1e-5,-1e-5 -1.20651,4.79626 -1.73334,9.06666 -0.70851,4.82624 -3.9057,8.24406 -6.13333,-0.66666 -1.92555,-6.47659 -3.10901,-22.43414 -6.33333,-18.69974 -0.92354,12.45974 -2.02016,34.384 8.56661,36.6336 12.80533,1.23104 5.73173,-21.64693 10.36672,-25.80053 0.87623,-2.05248 2.50005,-2.08896 2.63339,0.5 l 0,19.4336 c -0.11719,6.31744 4.04021,8.19477 7.26666,9.49995 3.35766,-0.25912 5.584,-0.16733 6.90006,3.09994 0.52467,11.20214 1.0753,22.432 1.6,33.63307 0,0 7.76245,2.23061 8.13333,-18.90027 0.37201,-12.40746 -2.47072,-22.8192 -0.8,-25.23306 0.0591,-2.37174 3.0992,-2.48907 5.2,-1.33334 3.34688,2.36096 4.83179,5.26656 10.03328,4.10006 7.91509,-2.18038 12.68267,-6.0223 12.8,-12.10027 -0.46231,-5.77557 -1.13045,-11.55733 -3.63328,-17.33333 0.34943,-1.0504 -1.51499,-3.78294 -1.16672,-4.83328 1.4224,2.22762 3.57429,2.04277 4.06667,0 -1.3472,-4.43926 -3.44448,-8.6927 -6.83328,-10.53334 -2.80075,-2.46741 -6.8991,-1.9456 -8.4,3.2 -0.69562,5.92939 2.1489,12.9568 6.46666,18.69974 0.91709,2.24384 2.1999,5.97568 1.63328,9.33333 -2.2976,1.31061 -4.57557,0.76533 -6.50005,-1.26667 1e-5,-1e-5 -6.29995,-4.71626 -6.29995,-5.76661 1.67179,-10.704 0.3601,-11.9296 -0.56666,-14.90027 -0.64722,-4.10058 -2.59051,-5.39925 -4.16662,-8.2 -1.5761,-1.67072 -3.71413,-1.67072 -4.73333,0 -2.78464,4.82731 -1.47819,15.19147 0.53333,19.8336 1.45355,4.26934 3.68267,6.93334 2.63339,6.93334 -0.86441,2.41258 -2.66688,1.8513 -3.96672,-0.93334 -1.85568,-5.7552 -2.23339,-14.3328 -2.23339,-18.19946 -0.55692,-4.79403 -1.17781,-15.03467 -4.33333,-17.633069 -0.84196,-1.146773 -1.83573,-1.546027 -2.8,-1.433387 z m 44.9664,0.06667 c -0.63545,0.08032 -1.33792,0.44208 -2.16661,0.633334 -2.72224,0.86656 -5.27083,3.219948 -4.46667,7.800008 3.21792,19.55413 5.31542,34.47786 8.53334,54.03306 0.49459,2.29003 -1.42507,5.30859 -3.89995,5 -4.20811,-2.84693 -5.25248,-8.6129 -12.43307,-8.36673 -5.19829,0.0624 -11.1264,5.71894 -11.86666,11.16694 -0.86655,4.3296 -1.17515,9.02411 0,12.80001 3.65333,4.39295 8.02954,3.92458 11.86666,2.93333 3.15552,-1.29877 5.75179,-4.40853 6.86667,-3.66667 0.003,0.003 0.0305,-0.004 0.0333,0 0.003,0.004 -0.003,0.0288 0,0.0333 0.6881,1.20277 -0.0648,11.37387 -14.8672,19.23307 -9.09664,4.08448 -16.33707,5.06037 -20.2336,-2.36672 -2.41365,-4.64139 0.17559,-22.31893 -5.76661,-18.2336 -17.57334,45.29813 41.1712,51.62133 47.73333,1.86667 0.425,-1.40363 1.71957,-2.81195 2.63339,-2.46667 0.40096,0.17075 0.76798,0.71522 0.9,1.73333 -1.36224,45.05067 -45.4464,48.13867 -52.93334,33.96694 -1.85568,-3.34048 -2.41397,-10.77654 -2.6,-15.23307 -0.33938,-2.696 -1.01586,-4.25109 -1.8,-4.86667 -1.78613,-1.34208 -4.18634,2.15787 -4.69994,8.23339 -0.7429,4.88864 -0.53334,6.23071 -0.53334,10.93333 2.35136,35.58294 59.08054,20.2944 68.29974,-9.09994 4.56394,-15.19574 -0.0929,-26.6592 1.43338,-28.06614 0.0132,-0.0111 0.0526,-0.0237 0.0667,-0.0333 0.0145,-0.009 0.0512,-0.0258 0.0667,-0.0333 0.0159,-0.006 0.0498,-0.0279 0.0667,-0.0333 0.052,-0.0139 0.13916,-0.0325 0.2,-0.0333 5.63158,6.06592 13.53387,0.7707 15.26614,-1.33333 0.74291,-1.05255 2.60128,-1.72779 3.89994,-0.36667 4.39296,3.15766 12.0928,1.66923 13.70027,-3.89994 0.92891,-5.44555 1.71403,-11.05174 1.89995,-16.86614 -2.86155,0.88845 -5.17067,1.55371 -6.10006,2.53334 -0.22132,0.24169 -0.38503,0.5098 -0.43333,0.8 -0.24835,1.60949 -0.48498,3.22389 -0.73333,4.83328 -0.0266,0.13304 -0.0693,0.25595 -0.13334,0.36666 -0.12196,0.19756 -0.32358,0.37975 -0.53333,0.5 -1.01165,0.55236 -2.77568,0.23649 -2.86667,-1.23328 -1.36106,-6.18848 -6.96277,-6.99338 -10.36672,2.6 -2.29002,1.85568 -6.4657,2.21792 -6.90005,-0.56666 0.55694,-6.43574 -2.03616,-7.29963 -7.23328,-4.26667 -1.67083,-12.74773 -3.32821,-24.9184 -5,-37.66613 2.1664,-0.0624 4.15296,1.50826 6.13333,-0.96667 -2.14314,-6.66528 -6.67808,-20.2272 -9.23328,-21.499738 -0.0201,-0.0096 -0.0468,-0.0256 -0.0667,-0.03328 -0.11601,-0.1392 -0.25328,-0.267424 -0.36667,-0.366667 -0.0471,-0.04 -0.11979,-0.09952 -0.16667,-0.133333 -0.0468,-0.03253 -0.12001,-0.07328 -0.16666,-0.09995 -0.10262,-0.05632 -0.23087,-0.102187 -0.33334,-0.133333 -0.23296,-0.06603 -0.45929,-0.09707 -0.7,-0.06667 z m 175.296,0.09995 c -2.2481,-0.06667 -4.73568,1.35008 -3.76661,4.166612 -0.56444,1.53632 4.83019,6.74774 5.70005,9.6 1.56544,4.3823 -1.19552,8.56246 0.43334,9.16672 1.49877,0.67626 3.584,-4.52426 4.36672,-9.33333 0.90418,-3.88768 -1.86934,-11.85493 -5.8,-13.499735 -0.3013,-0.07093 -0.61217,-0.09045 -0.93334,-0.09995 z M 317.7024,103.30802 c 1.02378,-0.10432 2.2608,0.83634 2.86667,2.16661 0.64627,1.41899 0.32212,2.77483 -0.73334,3.03339 -1.05544,0.25852 -2.42037,-0.68098 -3.06666,-2.10005 -0.64625,-1.41899 -0.32213,-2.80811 0.73333,-3.06667 0.0659,-0.0162 0.13174,-0.0263 0.2,-0.0333 z m 253.33333,6.56661 c -2.0496,-0.0718 -4.2833,1.48438 -3.4,4.53334 -0.51392,1.66325 4.3743,7.31221 5.16672,10.4 0.71281,2.19754 -1.0848,9.27968 0.4,9.93333 1.36651,0.73216 3.28726,-4.89312 4,-10.10005 0.39565,-2.85014 -1.71658,-12.85227 -5.30005,-14.6336 -0.2747,-0.0767 -0.57387,-0.12308 -0.86667,-0.13334 z m -140.064,3.46667 c 0.18747,0.8358 0.37483,1.67723 0.5,2.53333 0.42008,1.84715 0.7822,3.68192 1.16672,5.49995 -1.61802,-2.22795 -2.95733,-4.02805 -3.53333,-4.66667 -3.66112,-4.35093 0.0824,-2.85717 1.86667,-3.36661 z m 32.26667,15.86667 c -0.79211,0.13721 -1.55648,0.82325 -1.83339,1.89994 -0.17417,0.70528 0.33863,1.84523 -0.3,2.2 -0.36661,0.36985 -1.79136,0.15458 -1.73333,-1.8 -1e-5,-0.6225 -0.45702,-1.30538 -0.73333,-1.70005 -0.27737,-0.18171 -0.46458,-0.23333 -0.96667,-0.23333 -0.61177,0.0247 -0.5979,0.18609 -0.93333,0.7 -0.14191,0.52359 -0.33334,1.03986 -0.33334,1.63328 -0.0764,0.69561 -0.32156,0.93119 -0.83333,1.03333 -0.57197,0 -0.46995,0.0623 -0.93333,-0.23333 -0.27525,-0.30103 -0.6,-0.41943 -0.6,-0.93334 1e-5,-0.53219 -0.13981,-1.38176 -0.3,-1.73333 -0.24299,-0.32039 -0.62695,-0.45377 -1.06667,-0.56667 -2.39648,0.009 -2.5376,2.72918 -2.4,3.76662 -0.17956,0.19567 -0.30174,5.10986 2.96661,6.46666 4.38763,2.09216 12.64854,1.1744 12.29974,-5.89994 1e-5,-0.62573 -0.17098,-2.72694 -0.23334,-3.30006 -0.44779,-1.04288 -1.27456,-1.43722 -2.06666,-1.30005 z m -147.328,1.46666 c -0.54101,-0.0551 -1.25024,0.14348 -2.06667,0.63334 -3.8801,2.09866 -5.3825,8.32416 -2.96661,11.96693 2.25675,3.20821 5.82475,2.03328 6.29995,2.03328 3.8016,0.4752 6.06666,-7.13333 6.06666,-7.13333 -1e-5,0 0.11448,-2.13931 -4.4,1.89994 -1.89973,0.35588 -2.15808,-0.33024 -2.63338,-1.4 -0.39566,-1.9793 -0.31064,-3.98624 0.6,-5.96672 0.42065,-1.1873 0.002,-1.94144 -0.9,-2.03328 z m 208.26667,0.96667 c -2.15403,-0.10475 -4.44672,1.29013 -5.03339,4.23339 0.009,1.73632 0.78387,2.69056 0.63333,4.26666 -0.22469,0.90096 -1.15296,1.49344 -3.36661,0.43334 0.34619,-0.31824 -1.43339,-2.83328 -1.43339,-2.83328 -1.72672,-1.05148 -4.03242,0.0571 -5.53333,1.03333 -0.82571,1.50091 -1.43648,4.07349 -0.5,6.69995 2.47819,4.57898 10.9792,12.39253 15.0336,12.4672 0.0753,-4.12854 0.47637,-9.61867 0.7,-13.0336 0.0957,-1.28907 0.39803,-2.70976 1.63328,-3.03339 1.23424,-0.32254 3.37632,1.24181 3.4,-0.0999 -0.2247,-2.62656 -0.74964,-6.5024 -2.23339,-8.33333 -0.75999,-1.12608 -2.00757,-1.73717 -3.30005,-1.8 z M 351.7824,146.00821 c -0.0573,0.021 -0.11401,0.07 -0.16667,0.1 -0.0258,0.0157 -0.0739,0.0479 -0.0999,0.0667 -0.42901,0.32206 -0.93525,1.06532 -2.06667,1.86666 -1.90837,2.17067 -2.25045,3.68224 -2.13333,8.03328 0.10857,0.46024 3.62293,10.23136 6.6,17.09974 2.00725,7.13888 3.86432,15.31306 2.50005,23.0336 -4.69941,10.20629 -14.1472,19.36 -23.26613,24.3328 -4.64608,1.488 -8.65856,0.98127 -9.73334,-0.0333 -0.009,-0.009 -0.0256,-0.0252 -0.0333,-0.0333 -2.66816,-1.79392 -2.72938,-4.98731 -2.56661,-5.53334 -5e-5,-0.003 1.8e-4,-0.0295 0,-0.0333 0.006,-0.006 0.0272,-0.0275 0.0333,-0.0333 7.69472,-5.35957 16.48427,-9.69749 23.3664,-24.1664 2.032,-5.52938 2.65237,-8.84949 0.63333,-17.39946 -0.7871,-3.18592 -1.75936,-5.80758 -3.93333,-8.06667 0.005,-0.006 0.0276,-0.0274 0.0333,-0.0333 1.30987,-0.62668 4.70837,1.87701 5.23328,0.3 -0.80419,-4.08224 -3.56917,-9.56267 -6.69995,-12.36693 -2.74154,-2.49003 -5.72394,-2.77824 -8.23338,-0.5 -2.82656,1.5729 -3.42774,7.22208 -2.06667,12.1664 1.51168,3.72213 5.59285,4.37514 8.50005,11.86666 -5e-5,0.007 -2.5e-4,0.0308 0,0.0333 0.0606,0.46972 0.99772,5.5919 -0.46666,7.66667 -1.18838,3.70581 -16.45227,15.74293 -17.53387,16.4672 -0.0119,0.012 -0.0884,0.0554 -0.0999,0.0667 -0.006,0.006 -0.0276,0.0277 -0.0333,0.0333 -0.003,0.002 -0.0262,0.0261 -0.0333,0.0333 -0.003,0.003 -0.0303,0.0299 -0.0333,0.0333 -0.003,0 -0.0296,1.8e-4 -0.0333,0 -0.002,-8e-5 -0.0257,-1.2e-4 -0.0333,0 -0.006,-0.005 -0.0274,-0.0271 -0.0333,-0.0333 2.6e-4,-0.003 -7e-5,-0.0303 0,-0.0333 -0.006,-0.0115 -0.0273,-0.0546 -0.0333,-0.0667 -0.046,-0.30053 0.0348,-1.06569 0,-2.29995 -0.10026,-2.25536 0.83322,-7.35776 0.76667,-8.23338 3e-5,-0.003 -1e-4,-0.03 0,-0.0333 -0.006,-0.006 -0.0271,-0.0274 -0.0333,-0.0333 4e-5,-0.003 -1.7e-4,-0.0297 0,-0.0333 -0.007,1.5e-4 -0.0322,9e-5 -0.0333,0 -5.04555,3.2577 -6.71189,13.24373 -7.63328,16.20053 -12.77333,8.82571 -27.27893,15.392 -35.63307,24.3328 -4.35104,6.79488 29.9776,-7.80235 33.96694,-9.56672 0.0342,0.0257 0.0684,0.0672 0.0999,0.1 0.75829,0.83452 0.82305,3.74432 3.09995,6.36672 3.56832,4.83381 11.15307,7.81056 18.53333,5.96672 12.37654,-4.4736 19.5072,-12.9088 26.76694,-22.26667 1.0375,-1.50944 2.66368,-2.69877 4.16661,-1.53333 4.98859,11.168 19.37173,19.11466 37.96693,19.93386 4.30272,-5.23264 2.24491,-7.80554 0.5,-8.90005 -0.5375,-0.35719 -9.24778,-3.75296 -10.6,-7.13333 -0.85151,-3.14582 1.21878,-5.93579 5.36662,-8.03328 11.9392,-1.44395 23.67573,-3.04779 35.0336,-6.69995 0.11503,-3.81568 2.36256,-9.52181 3.86666,-12 1.04437,-1.71947 1.71584,-1.88971 1.96672,-2.13333 0.009,-0.009 0.0262,-0.0245 0.0333,-0.0333 0.003,-0.004 0.0303,-0.0287 0.0333,-0.0333 0.006,-0.005 0.0273,-0.0274 0.0333,-0.0333 2e-5,-0.0114 4.5e-4,-0.0548 0,-0.0667 0.006,-0.0755 -5.2e-4,-0.20557 -0.0333,-0.33333 l -1.93333,-1.13334 -38.10027,-0.16666 c -0.47065,-0.1812 -0.82059,-0.36306 -1.03333,-0.53334 -0.0162,-0.0135 -0.0522,-0.0532 -0.0667,-0.0667 -0.006,-0.006 -0.027,-0.0267 -0.0333,-0.0333 -0.006,-0.006 -0.0278,-0.0268 -0.0333,-0.0333 -0.005,-0.0116 -0.0281,-0.055 -0.0333,-0.0667 -0.003,-0.003 -0.0295,-0.0298 -0.0333,-0.0333 7e-5,-0.003 -3.1e-4,-0.0298 0,-0.0333 -0.003,-0.003 -0.0294,-0.0298 -0.0333,-0.0333 2e-5,-0.003 -1.9e-4,-0.0298 0,-0.0333 1e-5,-0.003 -1.4e-4,-0.0298 0,-0.0333 0,-0.003 -8e-5,-0.0298 0,-0.0333 -3.5e-4,-0.005 1.3e-4,-0.0283 0,-0.0333 1.4e-4,-0.002 1e-4,-0.0262 0,-0.0333 -5e-5,-0.003 1.1e-4,-0.0298 0,-0.0333 -6e-5,-0.003 1.5e-4,-0.0298 0,-0.0333 -7e-5,-0.003 2.1e-4,-0.0298 0,-0.0333 0.006,-0.006 0.0271,-0.0273 0.0333,-0.0333 0.009,-0.0176 0.0218,-0.0493 0.0333,-0.0667 0.18602,-0.25067 0.63682,-0.48695 1.2,-0.7 9.09782,-1.23957 25.2608,-3.88906 26.33387,-19.4336 -0.16772,-8.09685 -3.46475,-13.3984 -13.39947,-14.8672 -7.30016,0.56446 -12.50666,7.62571 -11.6672,15.40054 -0.3494,2.09322 0.70833,6.20117 -1.43338,6.66666 -14.0032,1.27936 -29.28747,10.05344 -29.80054,16.3328 -0.003,-5.5e-4 -0.0304,1.5e-4 -0.0333,0 -0.005,0.006 -0.0275,0.0273 -0.0333,0.0333 -0.0108,0.005 -0.0491,0.0246 -0.0667,0.0333 -0.0116,-1.6e-4 -0.0549,4.3e-4 -0.0667,0 -0.0225,0.007 -0.077,0.0274 -0.1,0.0333 -0.006,5.8e-4 -0.0247,-1.1e-4 -0.0333,0 -0.019,-3e-4 -0.0541,0 -0.0667,0 -0.006,-2e-4 -0.0247,-2.1e-4 -0.0333,0 -0.0141,3.6e-4 -0.055,5.7e-4 -0.0667,0 -0.0362,-0.007 -0.10197,-0.0254 -0.13333,-0.0333 -0.91077,-0.25295 -2.08406,-1.75594 -1.89995,-3.86666 -0.53327,-10.85547 -4.06635,-23.1392 -9.6,-32.59947 -1.97472,-1.97419 -2.83509,-2.77419 -3.4,-2.86667 -0.0182,-0.002 -0.049,8.6e-4 -0.0667,0 -0.0233,-9e-5 -0.07,2.7e-4 -0.0999,0 -0.005,1.5e-4 -0.0282,-4.2e-4 -0.0333,0 -0.003,-9e-5 -0.0302,2.7e-4 -0.0333,0 -0.004,0.001 -0.0292,-0.001 -0.0333,0 z m 36.4672,5.73334 c -0.79211,0.13721 -1.55648,0.78992 -1.83339,1.86666 -0.17415,0.70529 0.33863,1.87851 -0.3,2.23339 -0.36662,0.36985 -1.79136,0.15459 -1.73333,-1.8 0,-0.6225 -0.45702,-1.30539 -0.73333,-1.70005 -0.27738,-0.1817 -0.43125,-0.23334 -0.93334,-0.23334 -0.61175,0.0247 -0.63123,0.18608 -0.96666,0.7 -0.14193,0.52358 -0.33334,1.03986 -0.33334,1.63328 -0.0764,0.69562 -0.32156,0.9312 -0.83333,1.03334 -0.57198,0 -0.43662,0.0623 -0.9,-0.23334 -0.27523,-0.30103 -0.63333,-0.41941 -0.63333,-0.93333 -1e-5,-0.53219 -0.10646,-1.38176 -0.26667,-1.73333 -0.24298,-0.32039 -0.66028,-0.45378 -1.09995,-0.56667 -2.39648,0.009 -2.5376,2.72917 -2.4,3.76661 -0.17955,0.19568 -0.30174,5.10987 2.96662,6.46667 4.38762,2.09216 14.84373,0.86043 12.29973,-5.89995 -1e-5,-0.62572 -0.17098,-2.72693 -0.23333,-3.30005 -0.44779,-1.04288 -1.27456,-1.43723 -2.06667,-1.30005 z m 147.168,6.03328 c -0.11029,-0.0198 -0.23718,-0.0122 -0.36667,0.0333 0,0 -20.3296,14.46293 -20.83306,14.9664 -2.0159,1.79221 -1.00738,8.0945 0,7.36661 1.45685,0.56014 21.92426,-13.30987 21.53386,-14.93333 0.89202,0.0524 1.32107,-7.13515 -0.33333,-7.43339 z m -127.95733,2.144 c 0.82972,-0.088 1.91808,0.19352 2.96661,0.8 1.51765,0.87779 2.45312,2.20341 2.33333,3.16672 -0.004,0.0261 0.005,0.0745 0,0.0999 -0.006,0.0254 -0.0591,0.0752 -0.0667,0.1 -0.009,0.0245 -0.0236,0.076 -0.0333,0.1 -0.006,0.0158 -0.0257,0.0512 -0.0333,0.0667 -0.007,0.0154 -0.0246,0.0516 -0.0333,0.0667 -0.0497,0.0814 -0.13182,0.16681 -0.2,0.23333 -0.72955,0.68136 -2.41344,0.58437 -4,-0.33333 -1.50379,-0.8698 -2.43307,-2.20587 -2.33334,-3.16672 0.003,-0.0262 0.0285,-0.0742 0.0333,-0.0999 0.0252,-0.11923 0.0724,-0.22799 0.13334,-0.33333 0.0218,-0.0376 0.041,-0.0988 0.0667,-0.13333 0.005,-0.006 0.0278,-0.0267 0.0333,-0.0333 0.0448,-0.0523 0.1125,-0.12223 0.16667,-0.16667 0.24182,-0.19018 0.58455,-0.32613 0.96667,-0.36667 z m -178.03734,3.66666 c -10.53418,0.19246 -25.96053,13.808 -26.36693,21.3664 11.11573,-5.33802 22.03413,-10.47594 33.33333,-16 -1.82346,-2.72224 -0.11054,-5.17525 -6.96661,-5.36661 z m 34.13334,4.73334 c 1.03263,0.0116 2.1217,0.52152 2.69994,1.96672 0.52037,1.32565 0.0246,2.71189 -0.6,3.4 -0.003,0.005 0.003,0.0281 0,0.0333 -0.01,0.0154 -0.0229,0.0523 -0.0333,0.0667 -0.44213,0.56965 -1.99434,0.33334 -3.09994,0.33334 -1.3375,-0.0591 -1.99691,-0.27864 -2.8,-1.36662 -0.38381,-1.20949 0.785,-2.39797 1.30005,-3.30005 0.005,-0.009 0.0281,-0.025 0.0333,-0.0333 0.0559,-0.084 0.14721,-0.18481 0.23333,-0.26667 0.4,-0.36636 1.09174,-0.70883 1.83339,-0.8 0.1442,-0.0177 0.28581,-0.035 0.43333,-0.0333 z m 267.904,4.192 c -1.87307,0.23097 -3.65355,2.00213 -2.83328,4.83328 -0.51392,1.66325 2.54101,7.47893 3.33333,10.56661 0.71282,2.19755 -0.91809,8.41301 0.56667,9.06667 1.3665,0.73217 4.96021,-3.68992 4.83328,-9.23328 0.39564,-2.85014 -1.01658,-13.35147 -4.6,-15.13387 -0.41205,-0.1151 -0.86777,-0.1533 -1.30006,-0.1 z M 303.9296,182.77749 c -1.65547,0.11572 -3.13269,1.00057 -2.46667,3.33334 -0.0999,1.69226 4.67744,3.74997 4.96662,7.66666 0.68271,1.61483 -1.02134,6.78614 0.4,7.26667 1.30517,0.53756 3.11626,-3.57472 3.8,-7.4 0.37844,-2.09547 -1.63915,-9.42485 -5.06667,-10.7328 -0.52601,-0.11316 -1.08149,-0.1719 -1.63328,-0.13333 z m 68.10027,9.30006 c 0.12562,-0.009 0.23638,7.6e-4 0.36666,0 0.0219,-1.4e-4 0.0447,-1e-4 0.0667,0 4.24459,1.1536 10.50176,1.27317 15.93387,1.83338 4.42421,0.28061 6.61024,3.74432 2.46666,5.2 -4.08768,1.3999 -8.01504,2.49323 -8.03328,8.4 0.53735,2.92598 0.42352,4.46144 -0.0333,5.16672 -0.0357,0.0529 -0.0936,0.12322 -0.13333,0.16667 -0.005,0.006 -0.0275,0.0275 -0.0333,0.0333 -0.006,0.005 -0.0273,0.0278 -0.0333,0.0333 -0.006,0.005 -0.0272,0.0283 -0.0333,0.0333 l -0.0333,0.0333 c -0.0117,0.005 -0.0548,0.0276 -0.0667,0.0333 -0.0594,0.0369 -0.13526,0.0763 -0.2,0.1 -0.0572,0.0194 -0.1392,0.0231 -0.2,0.0333 -0.97168,0.1425 -2.38293,-0.78412 -3.43338,-1.33334 -2.52011,-1.80949 -9.59264,-6.19264 -10.6,-15.6 -0.14334,-2.12288 1.44576,-3.95349 4,-4.13333 z m -166.336,7.23328 c -0.26516,0.009 -0.79579,0.80065 -1.49995,1.70005 -6.26699,9.98368 -6.82432,24.8864 -3.36661,29.33333 1.83744,2.1008 4.86698,3.02464 7.09994,2.36672 3.93718,-1.7073 5.66763,-9.68213 4.73334,-12.59946 -1.31382,-2.05675 -2.35499,-2.38262 -3.66667,-0.63334 -2.77056,5.62507 -3.92363,1.77707 -4.16661,-1.36661 -0.42469,-5.9616 0.15276,-11.45173 0.8,-15.79947 0.34457,-2.22826 0.33182,-3.00832 0.0667,-3 z m 213.504,13.10933 c -0.46602,-0.025 -0.96297,0.0479 -1.46667,0.3 -0.0989,0 -4.48619,2.96693 -5.89995,5.03339 -0.86226,0.65584 -0.76449,1.22592 -0.5,2.36672 0.67196,1.54496 1.85611,1.06011 3.2,0.33333 1.78368,-0.24299 2.64619,0.92501 2.50006,3.06667 -0.82356,2.67061 0.36665,3.6656 0.36666,3.83338 0,0.16773 1.71744,1.64182 3.73334,0.46667 4.25536,-1.62453 6.9072,-3.20448 12.86613,-4.50005 1.56437,-0.0311 1.47392,-4.21718 -1,-4.36672 -3.22752,0.16234 -6.20576,0.32721 -9.43339,2.86666 -1.98581,0.45909 -2.32586,-0.7496 -2.76672,-1.83338 -0.50423,-2.68886 1.13547,-4.58411 0.8,-6.6 0.0895,0.0886 -1.00194,-0.89178 -2.4,-0.96667 z m 136.704,5.09995 c -0.7917,0.0247 -1.62539,0.13442 -2.83328,0.23333 -1.30624,0.2774 -1.76235,0.84966 -2,2.43328 0.0935,2.40181 1.56256,2.28288 3.06666,3.23328 0.87088,1.10848 1.43744,2.112 -0.0667,3.93333 -1.4256,1.30624 -2.44107,2.0271 -3.86667,3.33334 -0.67307,1.14826 -1.09227,2.91189 0.96667,3.46666 3.8016,1.0687 12.59946,-4.64736 12.59946,-4.76672 1.4256,-1.06869 0.95268,-3.09994 0.83334,-3.09994 -0.83106,-0.95042 -2.70656,-0.37959 -3.96672,-0.53334 -0.59994,0 -2.56982,-0.29161 -1.63328,-2.03328 0.78163,-1.08373 1.06997,-1.73141 1.6,-3.06666 0.59347,-1.30624 0.0718,-2.1872 -2.06667,-2.90006 -1.08907,-0.19782 -1.8416,-0.25806 -2.63339,-0.23333 z m -57.10934,115.62666 c -0.009,0.004 -0.025,0.0275 -0.0333,0.0333 -6.32288,1.6224 -6.12618,8.18656 -2.06666,11.06667 -66.76694,0 -169.22667,-1.13333 -191.2,-1.13333 -12.29334,0 -51.18614,-1.46667 -51.93387,-1.46667 8.34091,12.19947 20.42347,14.68373 36.2336,14.93333 29.65547,0 167.06133,-0.36666 206.16533,-0.36666 -2.77994,4.936 0.25222,12.87893 2.43328,14.33386 0.0463,0.0298 0.12127,0.0763 0.16667,0.0999 0.0814,0.0405 0.18873,0.0799 0.26667,0.0999 0.0258,0.006 0.0747,-0.003 0.0999,0 2.58891,0.61066 3.72811,-1.26358 4.6,-2.63339 4.19968,0.37017 27.8368,0.71207 30,-0.0333 0.007,-0.003 0.0261,-0.0303 0.0333,-0.0333 1.46326,2.15349 2.91542,4.18816 5.70006,3.83339 4.8736,-1.04504 8.71189,-1.57547 8.83328,-11.46667 0,0 -0.49818,-16.85547 -11.56694,-15.79947 -2.61898,0.39565 -9.96672,1.13334 -9.96672,1.13334 -8.50325,-1.0117 -14.74026,-1.1151 -24.29973,-1.46667 0.88238,-1.12021 2.44032,-5.65696 0.53333,-7.30005 -0.4973,-0.41352 -1.23914,-0.64376 -2.26666,-0.56667 -0.007,5.3e-4 -0.026,-9e-5 -0.0333,0 -0.0145,-7.3e-4 -0.0525,0.002 -0.0667,0 -0.007,-0.002 -0.0264,-0.0312 -0.0333,-0.0333 -0.0274,-0.01 -0.0738,-0.0172 -0.0999,-0.0333 -0.0518,-0.0352 -0.11918,-0.1098 -0.16666,-0.16667 -0.0117,-0.0148 -0.0552,-0.0507 -0.0667,-0.0667 -0.48343,-0.70386 -0.74739,-2.42955 -1.06667,-2.86667 -0.004,-0.004 -0.0295,-0.0289 -0.0333,-0.0333 -0.004,-0.003 -0.0294,-0.0301 -0.0333,-0.0333 -0.0116,-0.007 -0.0548,-0.0296 -0.0667,-0.0333 -0.004,-3.8e-4 -0.0293,-6e-5 -0.0333,0 -0.004,9.7e-4 -0.0292,-10e-4 -0.0333,0 z m 4.53334,24.10027 c 0.0116,-0.005 0.0215,0.005 0.0333,0 9.74069,0.47521 18.8928,0.0914 28.6336,0.56667 1.54378,1.31232 0.77168,4.31829 -0.23334,4.86666 -0.045,0.0225 -0.12095,0.0544 -0.16666,0.0667 -0.0367,0.009 -0.0965,-0.001 -0.13334,0 -0.0368,-7.5e-4 -0.0965,0.009 -0.13333,0 -3.16736,-0.0796 -4.99936,-0.15378 -8.16661,-0.23333 -0.005,-0.15757 -0.0229,-0.32754 -0.0667,-0.46667 -0.75062,-2.22464 -6.18752,-2.07584 -7.46667,-0.33333 -0.0177,0.0251 -0.0507,0.0742 -0.0667,0.0999 -0.0205,0.0347 -0.0494,0.0976 -0.0667,0.13334 -0.0206,0.045 -0.0514,0.11987 -0.0667,0.16666 -0.0199,0.066 -0.0244,0.16397 -0.0333,0.23334 -0.009,0.0798 -0.0404,0.18254 -0.0333,0.26666 -4.27584,0.51392 -8.12416,-0.14196 -12.4,-0.3 -1.2545,-1.5617 -1.10805,-4.38762 0.36667,-5.06666 z"
         id="path6"
         inkscape:connector-curvature="0"
         style="fill:#ffffff;fill-rule:evenodd" />
    </g>
    <g
       transform="translate(-1000,0)"
       id="g6211">
      <g
         id="g6189"
         transform="translate(1000,0)">
        <path
           inkscape:connector-curvature="0"
           id="path5058"
           d="m 800,600.00079 a 40,40 0 0 1 -40,40 l 0,-20 a 20,20 0 0 0 20,-20 l 20,0 z"
           style="opacity:0.603;fill:url(#radialGradient6127);fill-opacity:1" />
        <rect
           ry="0"
           y="146.66679"
           x="780"
           height="453.33401"
           width="20"
           id="rect6134"
           style="opacity:0.603;fill:url(#linearGradient6142);fill-opacity:1" />
        <rect
           y="620.00079"
           x="40"
           height="20"
           width="720"
           id="rect6144"
           style="opacity:0.603;fill:url(#linearGradient6152);fill-opacity:1" />
        <path
           style="opacity:0.603;fill:url(#radialGradient6156);fill-opacity:1"
           d="m 0,600.00079 a 40,40 0 0 0 40,40 l 0,-20 a 20,20 0 0 1 -20,-20 l -20,0 z"
           id="path6154"
           inkscape:connector-curvature="0" />
        <rect
           transform="scale(-1,1)"
           style="opacity:0.603;fill:url(#linearGradient6160);fill-opacity:1"
           id="rect6158"
           width="20"
           height="453.33401"
           x="-20"
           y="146.66679"
           ry="0" />
        <rect
           transform="scale(1,-1)"
           style="opacity:0.603;fill:url(#linearGradient6164);fill-opacity:1"
           id="rect6162"
           width="720"
           height="20"
           x="40"
           y="-126.66679" />
        <path
           style="opacity:0.603;fill:url(#radialGradient6174);fill-opacity:1"
           d="m 800,146.66679 a 40,40 0 0 0 -40,-40 l 0,20 a 20,20 0 0 1 20,20 l 20,0 z"
           id="path6166"
           inkscape:connector-curvature="0" />
        <path
           inkscape:connector-curvature="0"
           id="path6168"
           d="m 0,146.66679 a 40,40 0 0 1 40,-40 l 0,20 a 20,20 0 0 0 -20,20 l -20,0 z"
           style="opacity:0.603;fill:url(#radialGradient6176);fill-opacity:1" />
      </g>
      <rect
         style="opacity:0.3;fill:url(#linearGradient6209);fill-opacity:1"
         id="rect6201"
         width="760"
         height="493.33401"
         x="1020"
         y="-620.00079"
         ry="20"
         transform="scale(1,-1)" />
    </g>
  </g>
</svg>
