<svg xmlns="http://www.w3.org/2000/svg" xmlns:xlink="http://www.w3.org/1999/xlink" width="93.83" height="93.83" viewBox="0 0 93.83 93.83"><defs><style>.a{fill:url(#a);}.b{fill:#fff;}.c{filter:url(#b);}</style><linearGradient id="a" x1="0.5" y1="0.043" x2="0.5" y2="0.917" gradientUnits="objectBoundingBox"><stop offset="0" stop-color="#ff706b"/><stop offset="1" stop-color="#ff4141"/></linearGradient><filter id="b" x="0" y="0" width="93.83" height="93.83" filterUnits="userSpaceOnUse"><feOffset dy="3" input="SourceAlpha"/><feGaussianBlur stdDeviation="4.5" result="c"/><feFlood flood-color="#ff4c4c" flood-opacity="0.502"/><feComposite operator="in" in2="c"/><feComposite in="SourceGraphic"/></filter></defs><g transform="translate(-712.5 -338)"><g class="c" transform="matrix(1, 0, 0, 1, 712.5, 338)"><path class="a" d="M66.83,33.416A33.415,33.415,0,1,1,33.415,0,33.415,33.415,0,0,1,66.83,33.416" transform="translate(13.5 10.5)"/></g><path class="b" d="M21.771,25.923,13.1,17.254,4.432,25.923a.954.954,0,0,1-1.35,0l-2.8-2.8a.956.956,0,0,1,0-1.351L8.948,13.1.279,4.432a.955.955,0,0,1,0-1.35l2.8-2.8a.954.954,0,0,1,1.35,0L13.1,8.948,21.77.28a.955.955,0,0,1,1.351,0l2.8,2.8a.955.955,0,0,1,0,1.35L17.254,13.1l8.669,8.669a.956.956,0,0,1,0,1.351l-2.8,2.8a.954.954,0,0,1-1.35,0Z" transform="translate(746.314 368.813)"/></g></svg>